<?xml version="1.0" encoding="UTF-8"?>
<svg width="512px" height="512px" viewBox="0 0 512 512" version="1.1" xmlns="http://www.w3.org/2000/svg" xmlns:xlink="http://www.w3.org/1999/xlink">
    <!-- Generator: Sketch 52.2 (67145) - http://www.bohemiancoding.com/sketch -->
    <title>Artboard Copy 5@2x</title>
    <desc>Created with Sketch.</desc>
    <g id="Artboard-Copy-5" stroke="none" stroke-width="1" fill="none" fill-rule="evenodd" stroke-linecap="round" stroke-linejoin="round">
        <path d="M171.959353,68.7114992 C197.419963,57.8890171 225.470516,52.5 256,52.5 C286.529484,52.5 314.580036,57.8890171 340.040646,68.7114991 C351.335956,73.5127698 359.230059,83.953394 360.771354,96.1296258 L377.386624,227.390245 C379.457527,243.750378 369.661016,259.288596 354.006571,264.47328 C323.728938,274.5011 291.042493,279.5 256,279.5 C220.957507,279.5 188.271062,274.5011 157.993427,264.473279 C142.338985,259.288595 132.542474,243.750378 134.613377,227.390247 L151.228645,96.1296263 C152.76994,83.9533943 160.664044,73.51277 171.959353,68.7114992 Z" id="Rectangle" stroke="#FF001F" stroke-width="29" fill="#FF001F"></path>
        <path d="M256,66.5 C284.697536,66.5 310.886792,71.5314285 334.563939,81.5958181 C341.275645,84.4487471 345.966344,90.6525962 346.882186,97.8877485 L363.497455,229.148368 C364.727992,238.869606 358.906876,248.102461 349.60496,251.183215 C320.785533,260.728083 289.583273,265.5 256,265.5 L255.5,265.5 L255.5,265 C255.5,191.75 255.5,191.75 255.5,67 L255.5,66.5 L256,66.5 Z" id="Rectangle" stroke="#FFFFFF" fill="#FFFFFF"></path>
        <path d="M142.242314,319.716755 C182.928206,330.090565 220.84838,335.258318 256,335.258318 C291.15162,335.258318 329.071795,330.090565 369.757686,319.716755 C384.330146,316.001168 399.630527,322.153101 407.57488,334.922181 L435.400889,379.647351 C445.466282,395.825611 440.510824,417.100296 424.332564,427.165688 C421.895383,428.681993 419.278499,429.888219 416.542574,430.756404 C354.170435,450.548805 300.704828,460.5 256,460.5 C211.295172,460.5 157.829566,450.548805 95.4574306,430.756405 C77.2960705,424.993308 67.2452953,405.598702 73.0083957,387.437343 C73.8765802,384.701418 75.0828061,382.084533 76.5991115,379.647352 L104.425123,334.922181 C112.369475,322.153101 127.669855,316.001169 142.242314,319.716755 Z" id="Rectangle" stroke="#FF001F" stroke-width="29" fill="#FF001F"></path>
        <path d="M138.783355,333.282727 C180.555728,343.933561 219.627975,349.258318 256,349.258318 L256.5,349.258318 L256.5,349.758318 C256.5,386.211412 256.5,386.211412 256.5,402.152051 C256.5,410.472529 256.5,410.472529 256.5,421.710067 C256.5,431.74 256.5,431.74 256.5,446 L256.5,446.5 L256,446.5 C212.898984,446.5 160.797968,436.802787 99.6919271,417.412154 C88.9003947,413.987705 82.9281951,402.463374 86.3526461,391.671842 C86.8685239,390.046147 87.5852668,388.491187 88.4862598,387.043007 L116.312271,342.317835 C121.032828,334.730411 130.124358,331.074915 138.783355,333.282727 Z" id="Rectangle" stroke="#FFFFFF" fill="#FFFFFF"></path>
    </g>
</svg>