<?xml version="1.0" standalone="no"?>
<!DOCTYPE svg PUBLIC "-//W3C//DTD SVG 20010904//EN"
 "http://www.w3.org/TR/2001/REC-SVG-20010904/DTD/svg10.dtd">
<svg version="1.0" xmlns="http://www.w3.org/2000/svg"
 width="512.000000pt" height="512.000000pt" viewBox="0 0 512.000000 512.000000"
 preserveAspectRatio="xMidYMid meet">
<metadata>
Created by potrace 1.11, written by Peter Selinger 2001-2013
</metadata>
<g transform="translate(0.000000,512.000000) scale(0.100000,-0.100000)"
fill="#000000" stroke="none">
<path d="M2588 5005 c-1 -1 -35 -6 -74 -9 -161 -15 -283 -68 -381 -167 -61
-61 -91 -116 -168 -304 -92 -225 -137 -337 -230 -565 -48 -118 -95 -233 -104
-255 -10 -22 -26 -60 -36 -85 -10 -25 -23 -58 -30 -75 -133 -316 -142 -365
-111 -555 1 -3 10 -27 20 -55 29 -75 79 -147 138 -199 138 -122 504 -311 802
-415 128 -45 338 -108 390 -117 17 -3 56 -11 86 -19 30 -7 71 -16 90 -19 19
-3 44 -7 55 -9 192 -38 359 -52 615 -52 187 0 265 6 317 25 79 30 144 71 204
131 106 105 144 201 174 439 3 25 10 77 16 115 5 39 11 84 13 100 7 55 27 200
31 225 2 14 9 63 15 110 13 96 17 130 30 215 5 33 12 83 15 110 4 28 8 61 11
75 2 14 7 52 10 85 4 33 8 62 9 65 2 3 7 33 10 65 4 33 10 78 14 100 11 64 5
176 -14 241 -43 150 -119 239 -315 371 -199 134 -439 245 -696 321 -55 17
-114 32 -130 35 -16 3 -47 10 -69 16 -22 5 -57 13 -79 17 -21 3 -48 8 -60 10
-11 3 -41 7 -66 10 -25 3 -58 8 -75 11 -33 5 -421 14 -427 8z"/>
<path d="M1175 2474 c-144 -25 -205 -61 -362 -211 -22 -21 -100 -94 -174 -163
-217 -204 -238 -227 -282 -321 -33 -71 -38 -95 -44 -199 -8 -142 42 -282 134
-382 56 -59 327 -233 563 -361 30 -16 65 -35 77 -43 11 -7 83 -45 159 -85 120
-62 189 -94 378 -178 105 -48 423 -165 476 -176 8 -2 53 -14 100 -28 70 -21
232 -56 375 -82 51 -9 237 -33 310 -40 39 -4 83 -8 100 -10 152 -19 772 -27
1006 -13 124 8 217 36 300 91 183 122 272 356 216 572 -10 39 -33 120 -52 180
-18 61 -54 178 -79 260 -57 187 -101 275 -173 349 -106 108 -217 153 -399 161
-231 10 -340 15 -389 20 -27 3 -77 8 -110 11 -33 3 -85 9 -115 14 -30 5 -79
12 -109 15 -30 4 -63 9 -75 11 -12 3 -34 7 -51 10 -87 14 -291 62 -420 99
-263 75 -687 257 -978 419 -81 46 -167 75 -237 82 -30 3 -59 7 -65 8 -5 2 -41
-3 -80 -10z"/>
</g>
</svg>
